<svg xmlns="http://www.w3.org/2000/svg" viewBox="211.628 -180.072 561.802 499.803"><path d="M492.53-32.642c67.355 0 129.927 9.665 177.106 25.907 56.844 19.57 91.794 49.233 91.794 76.093 0 27.99-37.04 59.503-98.083 79.728-46.15 15.29-106.88 23.272-170.818 23.272-65.555 0-127.63-7.492-174.29-23.44-59.047-20.183-94.612-52.104-94.612-79.56 0-26.642 33.37-56.076 89.415-75.616 47.355-16.51 111.472-26.384 179.486-26.384z" fill="none" stroke="#f3c523" stroke-width="24"/><path d="M403.736 18.652c33.65-58.348 73.28-107.724 110.92-140.48 45.35-39.466 88.507-54.923 111.775-41.505 24.25 13.983 33.043 61.814 20.068 124.796-9.81 47.618-33.234 104.212-65.176 159.6-32.75 56.79-70.25 106.82-107.377 139.273-46.98 41.068-92.4 55.93-116.185 42.213-23.08-13.31-31.906-56.922-20.834-115.234 9.355-49.27 32.832-109.745 66.81-168.664z" fill="none" stroke="#f3c523" stroke-width="24"/><path d="M403.82 121.212C370.076 62.92 347.09 3.925 337.51-45.043c-11.545-59-3.383-104.11 19.863-117.566 24.224-14.023 70.055 2.245 118.14 44.94C511.87-85.39 549.2-36.83 581.236 18.505c32.844 56.733 57.46 114.21 67.036 162.582 12.117 61.213 2.31 107.984-21.453 121.74-23.058 13.348-65.25-.784-110.24-39.5-38.013-32.71-78.682-83.252-112.76-142.114z" fill="none" stroke="#f3c523" stroke-width="24"/><circle cx="492.529" cy="69.358" r="50.167" fill="#f3c523"/></svg>